Coordinates
version=1
nRows=8
nColumns=63
inDegrees=yes

Units are S.I. units (second, meters, Newtons, ...)
If the header above contains a line with 'inDegrees', this indicates whether rotational values are in degrees (yes) or radians (no).

endheader
time	pelvis_tilt	pelvis_list	pelvis_rotation	pelvis_tx	pelvis_ty	pelvis_tz	hip_flexion_r	hip_adduction_r	hip_rotation_r	knee_angle_r	knee_angle_r_beta	ankle_angle_r	subtalar_angle_r	mtp_angle_r	hip_flexion_l	hip_adduction_l	hip_rotation_l	knee_angle_l	knee_angle_l_beta	ankle_angle_l	subtalar_angle_l	mtp_angle_l	L5_S1_Flex_Ext	L5_S1_Lat_Bending	L5_S1_axial_rotation	L4_L5_Flex_Ext	L4_L5_Lat_Bending	L4_L5_axial_rotation	L3_L4_Flex_Ext	L3_L4_Lat_Bending	L3_L4_axial_rotation	L2_L3_Flex_Ext	L2_L3_Lat_Bending	L2_L3_axial_rotation	L1_L2_Flex_Ext	L1_L2_Lat_Bending	L1_L2_axial_rotation	L1_T12_Flex_Ext	L1_T12_Lat_Bending	L1_T12_axial_rotation	Abs_r3	Abs_r2	Abs_r1	Abs_t1	Abs_t2	neck_flexion	neck_bending	neck_rotation	arm_flex_r	arm_add_r	arm_rot_r	elbow_flex_r	pro_sup_r	wrist_flex_r	wrist_dev_r	arm_flex_l	arm_add_l	arm_rot_l	elbow_flex_l	pro_sup_l	wrist_flex_l	wrist_dev_l
      0.00800000	    -63.45181383	     -4.87347476	     -3.83870185	     -0.31039032	      1.12271909	      0.04452948	    119.01917208	     -3.58018722	     -4.08124713	    106.83650525	      1.86464878	     27.37956682	      1.95297635	      0.00000000	     90.85067492	     -7.72180681	      0.12226245	     33.28944447	      0.58101041	      2.19943199	      9.42242102	      0.00000000	     -0.10581010	      1.49531305	      0.88308440	     -0.19649994	      1.98876636	      0.93827718	     -0.17383542	      3.63570416	      0.93827718	     -0.12093037	      3.63570416	      0.77269885	     -0.09825526	      3.04924238	      0.71750608	     -0.06045989	      2.31623992	      0.66231330	     -0.75579098	     16.91528031	      4.91145053	      0.00000000	      0.00000000	      0.00000000	      0.00000000	      0.00000001	     65.22430947	     -9.72465964	      4.29957590	     53.60119000	     64.94546033	      0.00000000	      3.78258710	     58.98603958	     -8.28124385	     -3.24737438	     51.51610971	     63.97179971	      0.00000000	      3.78258710
      0.01700000	    -63.70058243	     -5.44239951	     -4.11716161	     -0.30959429	      1.12541383	      0.04381279	    120.65898608	     -3.74115815	     -5.95440991	    105.45074547	      1.84046271	     28.06522925	     -2.71221348	      0.00000000	     89.24632070	     -8.29663180	      0.34340979	     32.42768968	      0.56596995	      1.83535050	     11.25255503	      0.00000000	     -0.10467229	      1.62589207	      0.87576689	     -0.19438691	      2.16243645	      0.93050232	     -0.17196610	      3.95319397	      0.93050232	     -0.11962996	      3.95319397	      0.76629602	     -0.09719869	      3.31551910	      0.71156059	     -0.05980975	      2.51850681	      0.65682516	     -0.74766370	     18.39241624	      4.87075268	      0.00000000	      0.00000000	      0.00000000	      0.00000000	      0.00000001	     66.13171936	     -9.99720674	      6.35716602	     52.95413247	     65.12857607	      0.00000000	      3.85003470	     58.48162473	     -8.42388105	     -3.73769350	     51.72842655	     63.87290311	      0.00000000	      3.85003470
      0.02500000	    -63.73177810	     -5.42818336	     -3.98597055	     -0.30932128	      1.12610445	      0.04366452	    120.99454343	     -3.84304950	     -6.00042861	    104.80851242	      1.82925363	     28.20172328	     -2.89522357	      0.00000000	     88.89292161	     -8.22752954	      0.34688854	     32.70083373	      0.57073722	      1.92184977	     11.11297299	      0.00000000	     -0.10436449	      1.62787299	      0.84791912	     -0.19381530	      2.16507108	      0.90091406	     -0.17146042	      3.95801039	      0.90091406	     -0.11927818	      3.95801039	      0.74192923	     -0.09691287	      3.31955861	      0.68893428	     -0.05963387	      2.52157526	      0.63593934	     -0.74546512	     18.41482486	      4.71587177	      0.00000000	      0.00000000	      0.00000000	      0.00000000	      0.00000001	     66.14830985	     -9.97582679	      6.38354338	     52.95875498	     65.09439238	      0.00000000	      3.85682330	     58.45311975	     -8.42034658	     -3.77368409	     51.72000289	     63.83469549	      0.00000000	      3.85682330
      0.03300000	    -63.77446293	     -5.59087913	     -4.07786058	     -0.30901195	      1.12670024	      0.04382644	    121.25247250	     -3.73084387	     -6.63358086	    103.84941797	      1.81251427	     27.97102624	     -5.89362985	      0.00000000	     88.76479748	     -8.37055255	      0.70294896	     33.61515035	      0.58669505	      2.44259487	     10.44144541	      0.00000000	     -0.10373888	      1.65204023	      0.85127068	     -0.19265347	      2.19721350	      0.90447510	     -0.17043261	      4.01677061	      0.90447510	     -0.11856317	      4.01677061	      0.74486185	     -0.09633192	      3.36884043	      0.69165743	     -0.05927640	      2.55901031	      0.63845301	     -0.74099645	     18.68820945	      4.73451216	      0.00000000	      0.00000000	      0.00000000	      0.00000000	      0.00000001	     66.32411987	     -9.99518140	      6.77347870	     52.70605480	     65.10661951	      0.00000000	      3.91231780	     58.31964287	     -8.28737973	     -4.27574816	     51.75947168	     63.73870564	      0.00000000	      3.91231780
      0.04200000	    -63.78706489	     -5.52975889	     -3.84852753	     -0.30879030	      1.12745008	      0.04369783	    121.53389924	     -3.82150802	     -6.63632056	    102.77518940	      1.79376544	     28.32849048	     -6.63448117	      0.00000000	     88.59954008	     -8.20779332	      0.84710258	     34.69529693	      0.60554717	      2.80046112	     10.05949707	      0.00000000	     -0.10325970	      1.64120843	      0.80355987	     -0.19176359	      2.18280721	      0.85378236	     -0.16964536	      3.99043417	      0.85378236	     -0.11801551	      3.99043417	      0.70311489	     -0.09588696	      3.34675222	      0.65289239	     -0.05900259	      2.54223185	      0.60266990	     -0.73757372	     18.56567797	      4.46915893	      0.00000000	      0.00000000	      0.00000000	      0.00000000	      0.00000001	     66.35801916	     -9.97513712	      6.86675872	     52.59159594	     65.07980359	      0.00000000	      3.92851388	     58.35678930	     -8.25276573	     -4.41494757	     51.66433972	     63.68772972	      0.00000000	      3.92851388
      0.05000000	    -63.80489834	     -5.48824496	     -3.66433618	     -0.30865175	      1.12828228	      0.04358737	    121.76646641	     -3.87158594	     -6.67900796	    101.41542739	      1.77003312	     28.53056714	     -7.53417831	      0.00000000	     88.57334309	     -8.07416026	      1.11523556	     36.17725217	      0.63141216	      3.26818912	      9.46092161	      0.00000000	     -0.10259225	      1.63019626	      0.76748247	     -0.19052406	      2.16816103	      0.81545012	     -0.16854880	      3.96365919	      0.81545012	     -0.11725268	      3.96365919	      0.67154716	     -0.09526716	      3.32429622	      0.62357950	     -0.05862121	      2.52517401	      0.57561185	     -0.73280617	     18.44110616	      4.26850723	      0.00000000	      0.00000000	      0.00000000	      0.00000000	      0.00000001	     66.39804617	     -9.99292206	      6.95327919	     52.44495172	     65.05059392	      0.00000000	      3.94459409	     58.43607858	     -8.15504013	     -4.60943409	     51.50406938	     63.63033348	      0.00000000	      3.94459409
      0.05800000	    -63.83006202	     -5.45153698	     -3.43967107	     -0.30862732	      1.12926731	      0.04342340	    121.92381489	     -3.93149098	     -6.66888282	     99.76184949	      1.74117274	     28.56745646	     -8.28002423	      0.00000000	     88.69747686	     -7.88464584	      1.48684856	     38.03056631	      0.66375860	      3.75518148	      8.79360552	      0.00000000	     -0.10148974	      1.61545305	      0.72740243	     -0.18847659	      2.14855255	      0.77286509	     -0.16673749	      3.92781254	      0.77286509	     -0.11599262	      3.92781254	      0.63647713	     -0.09424337	      3.29423185	      0.59101448	     -0.05799124	      2.50233677	      0.54555183	     -0.72493104	     18.27432796	      4.04559412	      0.00000000	      0.00000000	      0.00000000	      0.00000000	      0.00000001	     66.43125912	    -10.05355532	      7.01551555	     52.30540023	     65.02711474	      0.00000000	      3.95822095	     58.60135653	     -8.00963612	     -4.81315847	     51.27651453	     63.58096023	      0.00000000	      3.95822095
      0.06700000	    -63.90634160	     -5.71479612	     -3.54046422	     -0.30874326	      1.13056103	      0.04335579	    121.88731145	     -3.85012185	     -7.15735631	     97.65253291	      1.70435822	     28.02900762	     -9.71683812	      0.00000000	     89.07127254	     -7.91196834	      2.39862969	     40.25622074	      0.70260360	      4.21388518	      7.07990810	      0.00000000	     -0.10283522	      1.63868156	      0.75842316	     -0.19097529	      2.17944647	      0.80582461	     -0.16894798	      3.98429034	      0.80582461	     -0.11753037	      3.98429034	      0.66362027	     -0.09549279	      3.34159944	      0.61621882	     -0.05876004	      2.53831774	      0.56881737	     -0.73454170	     18.53709353	      4.21812212	      0.00000000	      0.00000000	      0.00000000	      0.00000000	      0.00000001	     66.60078932	    -10.32391280	      7.20387497	     52.10137948	     65.07484933	      0.00000000	      3.99324818	     58.81190746	     -7.61781304	     -5.28437039	     50.91564550	     63.55235870	      0.00000000	      3.99324818
